solid OpenSCAD_Model
  facet normal -2.22045e-16 -1 0
    outer loop
      vertex -8.5 -10.5 6
      vertex -8.5 -10.5 0
      vertex 8.5 -10.5 0
    endloop
  endfacet
  facet normal -2.22045e-16 -1 0
    outer loop
      vertex 8.5 -10.5 6
      vertex -8.5 -10.5 6
      vertex 8.5 -10.5 0
    endloop
  endfacet
  facet normal 0 0 -1
    outer loop
      vertex -8.5 -10.5 0
      vertex -8.5 1.88738e-15 0
      vertex 8.5 -10.5 0
    endloop
  endfacet
  facet normal 0 0 -1
    outer loop
      vertex -2 0 0
      vertex -8.5 1.88738e-15 0
      vertex -8.5 10.5 0
    endloop
  endfacet
  facet normal 0 0 -1
    outer loop
      vertex 1.41421 1.41421 0
      vertex -8.5 10.5 0
      vertex 8.5 10.5 0
    endloop
  endfacet
  facet normal 0 0 -1
    outer loop
      vertex 8.5 -10.5 0
      vertex 8.5 10.5 0
      vertex 8.5 -1.88738e-15 0
    endloop
  endfacet
  facet normal 0 0 -1
    outer loop
      vertex -1.97538 -0.312869 0
      vertex -8.5 1.88738e-15 0
      vertex -2 0 0
    endloop
  endfacet
  facet normal 0 0 -1
    outer loop
      vertex -1.97538 0.312869 0
      vertex -2 0 0
      vertex -8.5 10.5 0
    endloop
  endfacet
  facet normal 0 0 -1
    outer loop
      vertex -1.90211 -0.618034 0
      vertex -8.5 1.88738e-15 0
      vertex -1.97538 -0.312869 0
    endloop
  endfacet
  facet normal 0 0 -1
    outer loop
      vertex -1.78201 -0.907981 0
      vertex -8.5 1.88738e-15 0
      vertex -1.90211 -0.618034 0
    endloop
  endfacet
  facet normal 0 0 -1
    outer loop
      vertex -1.61803 -1.17557 0
      vertex -8.5 1.88738e-15 0
      vertex -1.78201 -0.907981 0
    endloop
  endfacet
  facet normal 0 0 -1
    outer loop
      vertex -1.41421 -1.41421 0
      vertex -8.5 1.88738e-15 0
      vertex -1.61803 -1.17557 0
    endloop
  endfacet
  facet normal 0 0 -1
    outer loop
      vertex 8.5 -10.5 0
      vertex -8.5 1.88738e-15 0
      vertex -1.41421 -1.41421 0
    endloop
  endfacet
  facet normal 0 0 -1
    outer loop
      vertex 8.5 -10.5 0
      vertex -1.41421 -1.41421 0
      vertex -1.17557 -1.61803 0
    endloop
  endfacet
  facet normal 0 0 -1
    outer loop
      vertex -0.618034 -1.90211 0
      vertex 8.5 -10.5 0
      vertex -0.907981 -1.78201 0
    endloop
  endfacet
  facet normal 0 0 -1
    outer loop
      vertex -0.312869 -1.97538 0
      vertex 8.5 -10.5 0
      vertex -0.618034 -1.90211 0
    endloop
  endfacet
  facet normal 0 0 -1
    outer loop
      vertex 0 -2 0
      vertex 8.5 -10.5 0
      vertex -0.312869 -1.97538 0
    endloop
  endfacet
  facet normal 0 0 -1
    outer loop
      vertex 1.41421 -1.41421 0
      vertex 8.5 -10.5 0
      vertex 1.17557 -1.61803 0
    endloop
  endfacet
  facet normal 0 0 -1
    outer loop
      vertex 8.5 -10.5 0
      vertex 0 -2 0
      vertex 0.312869 -1.97538 0
    endloop
  endfacet
  facet normal 0 0 -1
    outer loop
      vertex 8.5 -10.5 0
      vertex 0.312869 -1.97538 0
      vertex 0.618034 -1.90211 0
    endloop
  endfacet
  facet normal 0 0 -1
    outer loop
      vertex 8.5 -10.5 0
      vertex 0.618034 -1.90211 0
      vertex 0.907981 -1.78201 0
    endloop
  endfacet
  facet normal 0 0 -1
    outer loop
      vertex 8.5 -10.5 0
      vertex 0.907981 -1.78201 0
      vertex 1.17557 -1.61803 0
    endloop
  endfacet
  facet normal 0 0 -1
    outer loop
      vertex -1.41421 1.41421 0
      vertex -8.5 10.5 0
      vertex -1.17557 1.61803 0
    endloop
  endfacet
  facet normal 0 0 -1
    outer loop
      vertex 8.5 -10.5 0
      vertex 1.41421 -1.41421 0
      vertex 1.61803 -1.17557 0
    endloop
  endfacet
  facet normal 0 0 -1
    outer loop
      vertex 8.5 -10.5 0
      vertex 1.61803 -1.17557 0
      vertex 1.78201 -0.907981 0
    endloop
  endfacet
  facet normal 0 0 -1
    outer loop
      vertex 8.5 -10.5 0
      vertex 1.78201 -0.907981 0
      vertex 8.5 10.5 0
    endloop
  endfacet
  facet normal 0 0 -1
    outer loop
      vertex 1.97538 -0.312869 0
      vertex 8.5 10.5 0
      vertex 1.90211 -0.618034 0
    endloop
  endfacet
  facet normal 0 0 -1
    outer loop
      vertex -1.17557 1.61803 0
      vertex -8.5 10.5 0
      vertex -0.907981 1.78201 0
    endloop
  endfacet
  facet normal 0 0 -1
    outer loop
      vertex 0.907981 1.78201 0
      vertex -8.5 10.5 0
      vertex 1.17557 1.61803 0
    endloop
  endfacet
  facet normal 0 0 -1
    outer loop
      vertex -0.312869 1.97538 0
      vertex -8.5 10.5 0
      vertex 0 2 0
    endloop
  endfacet
  facet normal 0 0 -1
    outer loop
      vertex 1.97538 -0.312869 0
      vertex 2 0 0
      vertex 8.5 10.5 0
    endloop
  endfacet
  facet normal 0 0 -1
    outer loop
      vertex 2 0 0
      vertex 1.97538 0.312869 0
      vertex 8.5 10.5 0
    endloop
  endfacet
  facet normal 0 0 -1
    outer loop
      vertex 0 2 0
      vertex -8.5 10.5 0
      vertex 0.312869 1.97538 0
    endloop
  endfacet
  facet normal 0 0 -1
    outer loop
      vertex 1.97538 0.312869 0
      vertex 1.90211 0.618034 0
      vertex 8.5 10.5 0
    endloop
  endfacet
  facet normal 0 0 -1
    outer loop
      vertex 0.312869 1.97538 0
      vertex -8.5 10.5 0
      vertex 0.618034 1.90211 0
    endloop
  endfacet
  facet normal 0 0 -1
    outer loop
      vertex 1.90211 0.618034 0
      vertex 1.78201 0.907981 0
      vertex 8.5 10.5 0
    endloop
  endfacet
  facet normal 0 0 -1
    outer loop
      vertex 0.618034 1.90211 0
      vertex -8.5 10.5 0
      vertex 0.907981 1.78201 0
    endloop
  endfacet
  facet normal 0 0 -1
    outer loop
      vertex 1.78201 0.907981 0
      vertex 1.61803 1.17557 0
      vertex 8.5 10.5 0
    endloop
  endfacet
  facet normal 0 0 -1
    outer loop
      vertex 1.17557 1.61803 0
      vertex -8.5 10.5 0
      vertex 1.41421 1.41421 0
    endloop
  endfacet
  facet normal 0 0 -1
    outer loop
      vertex 1.61803 1.17557 0
      vertex 1.41421 1.41421 0
      vertex 8.5 10.5 0
    endloop
  endfacet
  facet normal 0 0 -1
    outer loop
      vertex -0.618034 1.90211 0
      vertex -8.5 10.5 0
      vertex -0.312869 1.97538 0
    endloop
  endfacet
  facet normal 0 0 -1
    outer loop
      vertex -0.907981 1.78201 0
      vertex -8.5 10.5 0
      vertex -0.618034 1.90211 0
    endloop
  endfacet
  facet normal 0 0 -1
    outer loop
      vertex 1.90211 -0.618034 0
      vertex 8.5 10.5 0
      vertex 1.78201 -0.907981 0
    endloop
  endfacet
  facet normal 0 0 -1
    outer loop
      vertex -1.61803 1.17557 0
      vertex -8.5 10.5 0
      vertex -1.41421 1.41421 0
    endloop
  endfacet
  facet normal 0 0 -1
    outer loop
      vertex -1.78201 0.907981 0
      vertex -8.5 10.5 0
      vertex -1.61803 1.17557 0
    endloop
  endfacet
  facet normal 0 0 -1
    outer loop
      vertex -1.90211 0.618034 0
      vertex -8.5 10.5 0
      vertex -1.78201 0.907981 0
    endloop
  endfacet
  facet normal 0 0 -1
    outer loop
      vertex -1.90211 0.618034 0
      vertex -1.97538 0.312869 0
      vertex -8.5 10.5 0
    endloop
  endfacet
  facet normal 0 0 -1
    outer loop
      vertex -0.907981 -1.78201 0
      vertex 8.5 -10.5 0
      vertex -1.17557 -1.61803 0
    endloop
  endfacet
  facet normal -1 0 0
    outer loop
      vertex -8.5 -8.95623 4.05801
      vertex -8.5 -10.5 6
      vertex -8.5 -8.05623 4.7119
    endloop
  endfacet
  facet normal -1 0 0
    outer loop
      vertex -8.5 -6.94377 4.7119
      vertex -8.5 -10.5 6
      vertex -8.5 -1.57844 17
    endloop
  endfacet
  facet normal -1 0 0
    outer loop
      vertex -8.5 1.88738e-15 0
      vertex -8.5 -1.57844 17
      vertex -8.5 1.57844 17
    endloop
  endfacet
  facet normal -1 0 0
    outer loop
      vertex -8.5 8.05623 4.7119
      vertex -8.5 1.57844 17
      vertex -8.5 10.5 6
    endloop
  endfacet
  facet normal -1 0 0
    outer loop
      vertex -8.5 8.95623 1.94199
      vertex -8.5 10.5 6
      vertex -8.5 10.5 8.39329e-14
    endloop
  endfacet
  facet normal -1 0 0
    outer loop
      vertex -8.5 -10.5 0
      vertex -8.5 -10.5 6
      vertex -8.5 -9.3 3
    endloop
  endfacet
  facet normal -1 0 0
    outer loop
      vertex -8.5 -10.5 0
      vertex -8.5 -9.3 3
      vertex -8.5 -8.95623 1.94199
    endloop
  endfacet
  facet normal -1 0 0
    outer loop
      vertex -8.5 -10.5 0
      vertex -8.5 -8.95623 1.94199
      vertex -8.5 -8.05623 1.2881
    endloop
  endfacet
  facet normal -1 0 0
    outer loop
      vertex -8.5 -10.5 0
      vertex -8.5 -8.05623 1.2881
      vertex -8.5 1.88738e-15 0
    endloop
  endfacet
  facet normal -1 0 0
    outer loop
      vertex -8.5 -8.05623 1.2881
      vertex -8.5 -6.94377 1.2881
      vertex -8.5 1.88738e-15 0
    endloop
  endfacet
  facet normal -1 0 0
    outer loop
      vertex -8.5 -5.7 3
      vertex -8.5 1.88738e-15 0
      vertex -8.5 -6.04377 1.94199
    endloop
  endfacet
  facet normal -1 0 0
    outer loop
      vertex -8.5 5.7 3
      vertex -8.5 1.88738e-15 0
      vertex -8.5 6.04377 4.05801
    endloop
  endfacet
  facet normal -1 0 0
    outer loop
      vertex -8.5 -6.04377 4.05801
      vertex -8.5 1.88738e-15 0
      vertex -8.5 -5.7 3
    endloop
  endfacet
  facet normal -1 0 0
    outer loop
      vertex -8.5 1.88738e-15 0
      vertex -8.5 -6.04377 4.05801
      vertex -8.5 -1.57844 17
    endloop
  endfacet
  facet normal -1 0 0
    outer loop
      vertex -8.5 -6.04377 4.05801
      vertex -8.5 -6.94377 4.7119
      vertex -8.5 -1.57844 17
    endloop
  endfacet
  facet normal -1 0 0
    outer loop
      vertex -8.5 -8.05623 4.7119
      vertex -8.5 -10.5 6
      vertex -8.5 -6.94377 4.7119
    endloop
  endfacet
  facet normal -1 0 0
    outer loop
      vertex -8.5 -9.3 3
      vertex -8.5 -10.5 6
      vertex -8.5 -8.95623 4.05801
    endloop
  endfacet
  facet normal -1 0 0
    outer loop
      vertex -8.5 8.05623 1.2881
      vertex -8.5 10.5 8.39329e-14
      vertex -8.5 6.94377 1.2881
    endloop
  endfacet
  facet normal -1 0 0
    outer loop
      vertex -8.5 1.88738e-15 0
      vertex -8.5 5.7 3
      vertex -8.5 6.04377 1.94199
    endloop
  endfacet
  facet normal -1 0 0
    outer loop
      vertex -8.5 1.88738e-15 0
      vertex -8.5 6.04377 1.94199
      vertex -8.5 6.94377 1.2881
    endloop
  endfacet
  facet normal -1 0 0
    outer loop
      vertex -8.5 1.88738e-15 0
      vertex -8.5 6.94377 1.2881
      vertex -8.5 10.5 8.39329e-14
    endloop
  endfacet
  facet normal -1 0 0
    outer loop
      vertex -8.5 8.95623 1.94199
      vertex -8.5 10.5 8.39329e-14
      vertex -8.5 8.05623 1.2881
    endloop
  endfacet
  facet normal -1 0 0
    outer loop
      vertex -8.5 9.3 3
      vertex -8.5 10.5 6
      vertex -8.5 8.95623 1.94199
    endloop
  endfacet
  facet normal -1 0 0
    outer loop
      vertex -8.5 8.05623 4.7119
      vertex -8.5 10.5 6
      vertex -8.5 8.95623 4.05801
    endloop
  endfacet
  facet normal -1 0 0
    outer loop
      vertex -8.5 8.95623 4.05801
      vertex -8.5 10.5 6
      vertex -8.5 9.3 3
    endloop
  endfacet
  facet normal -1 0 0
    outer loop
      vertex -8.5 6.94377 4.7119
      vertex -8.5 1.57844 17
      vertex -8.5 8.05623 4.7119
    endloop
  endfacet
  facet normal -1 0 0
    outer loop
      vertex -8.5 1.88738e-15 0
      vertex -8.5 1.57844 17
      vertex -8.5 6.94377 4.7119
    endloop
  endfacet
  facet normal -1 0 0
    outer loop
      vertex -8.5 1.88738e-15 0
      vertex -8.5 6.94377 4.7119
      vertex -8.5 6.04377 4.05801
    endloop
  endfacet
  facet normal -1 0 0
    outer loop
      vertex -8.5 -6.04377 1.94199
      vertex -8.5 1.88738e-15 0
      vertex -8.5 -6.94377 1.2881
    endloop
  endfacet
  facet normal -2.19287e-16 -0.98758 0.157115
    outer loop
      vertex -1.94289e-15 -8.75 17
      vertex -8.5 -10.5 6
      vertex 8.5 -10.5 6
    endloop
  endfacet
  facet normal 0.844554 -0.430322 0.318671
    outer loop
      vertex 8.32174 -2.7039 17
      vertex 7.0789 -5.14312 17
      vertex 8.5 -10.5 6
    endloop
  endfacet
  facet normal 0.979833 -0.15519 0.125867
    outer loop
      vertex 8.5 -1.57844 17
      vertex 8.32174 -2.7039 17
      vertex 8.5 -10.5 6
    endloop
  endfacet
  facet normal 0.999717 -0.0238028 0
    outer loop
      vertex 8.5 -10.5 6
      vertex 8.5 -10.5 0
      vertex 8.5 -10.5 8.39329e-14
    endloop
  endfacet
  facet normal 0.150718 -0.951598 0.267854
    outer loop
      vertex 2.7039 -8.32174 17
      vertex -1.94289e-15 -8.75 17
      vertex 8.5 -10.5 6
    endloop
  endfacet
  facet normal 0.419219 -0.822762 0.38382
    outer loop
      vertex 5.14312 -7.0789 17
      vertex 2.7039 -8.32174 17
      vertex 8.5 -10.5 6
    endloop
  endfacet
  facet normal 0.648248 -0.648248 0.399437
    outer loop
      vertex 7.0789 -5.14312 17
      vertex 5.14312 -7.0789 17
      vertex 8.5 -10.5 6
    endloop
  endfacet
  facet normal 0.999614 -2.21959e-16 -0.0277671
    outer loop
      vertex 8.5 -10.5 8.39329e-14
      vertex 8.5 -10.5 0
      vertex 8.5 -1.88738e-15 0
    endloop
  endfacet
  facet normal 1 0 0
    outer loop
      vertex 8.5 -6.94377 1.2881
      vertex 8.5 -10.5 8.39329e-14
      vertex 8.5 -1.88738e-15 0
    endloop
  endfacet
  facet normal 1 0 0
    outer loop
      vertex 8.5 6.94377 1.2881
      vertex 8.5 -10.5 6
      vertex 8.5 10.5 0
    endloop
  endfacet
  facet normal 1 0 0
    outer loop
      vertex 8.5 1.57844 17
      vertex 8.5 -10.5 6
      vertex 8.5 10.5 6
    endloop
  endfacet
  facet normal 1 0 0
    outer loop
      vertex 8.5 -1.57844 17
      vertex 8.5 -10.5 6
      vertex 8.5 1.57844 17
    endloop
  endfacet
  facet normal 1 0 0
    outer loop
      vertex 8.5 6.94377 4.7119
      vertex 8.5 8.05623 4.7119
      vertex 8.5 10.5 6
    endloop
  endfacet
  facet normal 1 0 0
    outer loop
      vertex 8.5 -10.5 6
      vertex 8.5 -10.5 8.39329e-14
      vertex 8.5 -8.95623 1.94199
    endloop
  endfacet
  facet normal 1 0 0
    outer loop
      vertex 8.5 -6.04377 1.94199
      vertex 8.5 -6.94377 1.2881
      vertex 8.5 -1.88738e-15 0
    endloop
  endfacet
  facet normal 1 0 0
    outer loop
      vertex 8.5 -10.5 6
      vertex 8.5 -8.95623 1.94199
      vertex 8.5 -9.3 3
    endloop
  endfacet
  facet normal 1 0 0
    outer loop
      vertex 8.5 8.05623 4.7119
      vertex 8.5 8.95623 4.05801
      vertex 8.5 10.5 6
    endloop
  endfacet
  facet normal 1 0 0
    outer loop
      vertex 8.5 -10.5 6
      vertex 8.5 -9.3 3
      vertex 8.5 -8.95623 4.05801
    endloop
  endfacet
  facet normal 1 0 0
    outer loop
      vertex 8.5 -6.94377 4.7119
      vertex 8.5 -10.5 6
      vertex 8.5 -8.05623 4.7119
    endloop
  endfacet
  facet normal 1 0 0
    outer loop
      vertex 8.5 -6.04377 4.05801
      vertex 8.5 -5.7 3
      vertex 8.5 -1.88738e-15 0
    endloop
  endfacet
  facet normal 1 0 0
    outer loop
      vertex 8.5 10.5 0
      vertex 8.5 -10.5 6
      vertex 8.5 -6.94377 4.7119
    endloop
  endfacet
  facet normal 1 0 0
    outer loop
      vertex 8.5 10.5 0
      vertex 8.5 -6.04377 4.05801
      vertex 8.5 -1.88738e-15 0
    endloop
  endfacet
  facet normal 1 0 0
    outer loop
      vertex 8.5 -6.94377 4.7119
      vertex 8.5 -6.04377 4.05801
      vertex 8.5 10.5 0
    endloop
  endfacet
  facet normal 1 0 0
    outer loop
      vertex 8.5 -5.7 3
      vertex 8.5 -6.04377 1.94199
      vertex 8.5 -1.88738e-15 0
    endloop
  endfacet
  facet normal 1 0 0
    outer loop
      vertex 8.5 -8.05623 1.2881
      vertex 8.5 -10.5 8.39329e-14
      vertex 8.5 -6.94377 1.2881
    endloop
  endfacet
  facet normal 1 0 0
    outer loop
      vertex 8.5 -8.95623 1.94199
      vertex 8.5 -10.5 8.39329e-14
      vertex 8.5 -8.05623 1.2881
    endloop
  endfacet
  facet normal 1 0 0
    outer loop
      vertex 8.5 5.7 3
      vertex 8.5 -10.5 6
      vertex 8.5 6.04377 1.94199
    endloop
  endfacet
  facet normal 1 0 0
    outer loop
      vertex 8.5 8.05623 1.2881
      vertex 8.5 6.94377 1.2881
      vertex 8.5 10.5 0
    endloop
  endfacet
  facet normal 1 0 0
    outer loop
      vertex 8.5 6.04377 4.05801
      vertex 8.5 -10.5 6
      vertex 8.5 5.7 3
    endloop
  endfacet
  facet normal 1 0 0
    outer loop
      vertex 8.5 6.94377 4.7119
      vertex 8.5 -10.5 6
      vertex 8.5 6.04377 4.05801
    endloop
  endfacet
  facet normal 1 0 0
    outer loop
      vertex 8.5 10.5 6
      vertex 8.5 -10.5 6
      vertex 8.5 6.94377 4.7119
    endloop
  endfacet
  facet normal 1 0 0
    outer loop
      vertex 8.5 10.5 6
      vertex 8.5 8.95623 4.05801
      vertex 8.5 10.5 0
    endloop
  endfacet
  facet normal 1 0 0
    outer loop
      vertex 8.5 8.95623 4.05801
      vertex 8.5 9.3 3
      vertex 8.5 10.5 0
    endloop
  endfacet
  facet normal 1 0 0
    outer loop
      vertex 8.5 9.3 3
      vertex 8.5 8.95623 1.94199
      vertex 8.5 10.5 0
    endloop
  endfacet
  facet normal 1 0 0
    outer loop
      vertex 8.5 8.95623 1.94199
      vertex 8.5 8.05623 1.2881
      vertex 8.5 10.5 0
    endloop
  endfacet
  facet normal 1 0 0
    outer loop
      vertex 8.5 6.04377 1.94199
      vertex 8.5 -10.5 6
      vertex 8.5 6.94377 1.2881
    endloop
  endfacet
  facet normal 1 0 0
    outer loop
      vertex 8.5 -8.95623 4.05801
      vertex 8.5 -8.05623 4.7119
      vertex 8.5 -10.5 6
    endloop
  endfacet
  facet normal 2.22045e-16 1 0
    outer loop
      vertex -8.5 10.5 0
      vertex -8.5 10.5 6
      vertex 8.5 10.5 0
    endloop
  endfacet
  facet normal 2.22045e-16 1 0
    outer loop
      vertex 8.5 10.5 0
      vertex -8.5 10.5 6
      vertex 8.5 10.5 6
    endloop
  endfacet
  facet normal -0.999614 2.21959e-16 -0.0277671
    outer loop
      vertex -8.5 10.5 0
      vertex -8.5 1.88738e-15 0
      vertex -8.5 10.5 8.39329e-14
    endloop
  endfacet
  facet normal -0.999717 0.0238028 0
    outer loop
      vertex -8.5 10.5 8.39329e-14
      vertex -8.5 10.5 6
      vertex -8.5 10.5 0
    endloop
  endfacet
  facet normal 0.996917 -0.0784581 0
    outer loop
      vertex -1.97538 0.312869 0
      vertex -1.97538 0.312869 11.3
      vertex -2 0 11.3
    endloop
  endfacet
  facet normal 0.996917 -0.0784581 0
    outer loop
      vertex -2 0 0
      vertex -1.97538 0.312869 0
      vertex -2 0 11.3
    endloop
  endfacet
  facet normal 0.996917 0.0784581 0
    outer loop
      vertex -2 0 11.3
      vertex -1.97538 -0.312869 11.3
      vertex -1.97538 -0.312869 0
    endloop
  endfacet
  facet normal 0.996917 0.0784581 0
    outer loop
      vertex -2 0 0
      vertex -2 0 11.3
      vertex -1.97538 -0.312869 0
    endloop
  endfacet
  facet normal 0.97237 -0.233446 0
    outer loop
      vertex -1.90211 0.618034 0
      vertex -1.90211 0.618034 11.3
      vertex -1.97538 0.312869 11.3
    endloop
  endfacet
  facet normal 0.97237 -0.233446 0
    outer loop
      vertex -1.97538 0.312869 0
      vertex -1.90211 0.618034 0
      vertex -1.97538 0.312869 11.3
    endloop
  endfacet
  facet normal 0.92388 -0.382683 0
    outer loop
      vertex -1.78201 0.907981 0
      vertex -1.78201 0.907981 11.3
      vertex -1.90211 0.618034 11.3
    endloop
  endfacet
  facet normal 0.92388 -0.382683 0
    outer loop
      vertex -1.90211 0.618034 0
      vertex -1.78201 0.907981 0
      vertex -1.90211 0.618034 11.3
    endloop
  endfacet
  facet normal 0.852641 -0.522498 0
    outer loop
      vertex -1.61803 1.17557 0
      vertex -1.61803 1.17557 11.3
      vertex -1.78201 0.907981 11.3
    endloop
  endfacet
  facet normal 0.852641 -0.522498 0
    outer loop
      vertex -1.78201 0.907981 0
      vertex -1.61803 1.17557 0
      vertex -1.78201 0.907981 11.3
    endloop
  endfacet
  facet normal 0.760407 -0.649447 0
    outer loop
      vertex -1.41421 1.41421 0
      vertex -1.41421 1.41421 11.3
      vertex -1.61803 1.17557 11.3
    endloop
  endfacet
  facet normal 0.760407 -0.649447 0
    outer loop
      vertex -1.61803 1.17557 0
      vertex -1.41421 1.41421 0
      vertex -1.61803 1.17557 11.3
    endloop
  endfacet
  facet normal 0.649447 -0.760407 0
    outer loop
      vertex -1.17557 1.61803 0
      vertex -1.17557 1.61803 11.3
      vertex -1.41421 1.41421 11.3
    endloop
  endfacet
  facet normal 0.649447 -0.760407 0
    outer loop
      vertex -1.41421 1.41421 0
      vertex -1.17557 1.61803 0
      vertex -1.41421 1.41421 11.3
    endloop
  endfacet
  facet normal 0.522498 -0.852641 0
    outer loop
      vertex -0.907981 1.78201 0
      vertex -0.907981 1.78201 11.3
      vertex -1.17557 1.61803 11.3
    endloop
  endfacet
  facet normal 0.522498 -0.852641 0
    outer loop
      vertex -1.17557 1.61803 0
      vertex -0.907981 1.78201 0
      vertex -1.17557 1.61803 11.3
    endloop
  endfacet
  facet normal 0.382683 -0.92388 0
    outer loop
      vertex -0.618034 1.90211 0
      vertex -0.618034 1.90211 11.3
      vertex -0.907981 1.78201 11.3
    endloop
  endfacet
  facet normal 0.382683 -0.92388 0
    outer loop
      vertex -0.907981 1.78201 0
      vertex -0.618034 1.90211 0
      vertex -0.907981 1.78201 11.3
    endloop
  endfacet
  facet normal 0.233446 -0.97237 0
    outer loop
      vertex -0.312869 1.97538 0
      vertex -0.312869 1.97538 11.3
      vertex -0.618034 1.90211 11.3
    endloop
  endfacet
  facet normal 0.233446 -0.97237 0
    outer loop
      vertex -0.618034 1.90211 0
      vertex -0.312869 1.97538 0
      vertex -0.618034 1.90211 11.3
    endloop
  endfacet
  facet normal 0.0784581 -0.996917 0
    outer loop
      vertex 0 2 0
      vertex 0 2 11.3
      vertex -0.312869 1.97538 11.3
    endloop
  endfacet
  facet normal 0.0784581 -0.996917 0
    outer loop
      vertex -0.312869 1.97538 0
      vertex 0 2 0
      vertex -0.312869 1.97538 11.3
    endloop
  endfacet
  facet normal -0.0784581 -0.996917 0
    outer loop
      vertex 0.312869 1.97538 0
      vertex 0.312869 1.97538 11.3
      vertex 0 2 11.3
    endloop
  endfacet
  facet normal -0.0784581 -0.996917 0
    outer loop
      vertex 0 2 0
      vertex 0.312869 1.97538 0
      vertex 0 2 11.3
    endloop
  endfacet
  facet normal -0.233446 -0.97237 0
    outer loop
      vertex 0.618034 1.90211 0
      vertex 0.618034 1.90211 11.3
      vertex 0.312869 1.97538 11.3
    endloop
  endfacet
  facet normal -0.233446 -0.97237 0
    outer loop
      vertex 0.312869 1.97538 0
      vertex 0.618034 1.90211 0
      vertex 0.312869 1.97538 11.3
    endloop
  endfacet
  facet normal -0.382683 -0.92388 0
    outer loop
      vertex 0.907981 1.78201 0
      vertex 0.907981 1.78201 11.3
      vertex 0.618034 1.90211 11.3
    endloop
  endfacet
  facet normal -0.382683 -0.92388 0
    outer loop
      vertex 0.618034 1.90211 0
      vertex 0.907981 1.78201 0
      vertex 0.618034 1.90211 11.3
    endloop
  endfacet
  facet normal -0.522498 -0.852641 0
    outer loop
      vertex 1.17557 1.61803 0
      vertex 1.17557 1.61803 11.3
      vertex 0.907981 1.78201 11.3
    endloop
  endfacet
  facet normal -0.522498 -0.852641 0
    outer loop
      vertex 0.907981 1.78201 0
      vertex 1.17557 1.61803 0
      vertex 0.907981 1.78201 11.3
    endloop
  endfacet
  facet normal -0.649447 -0.760407 0
    outer loop
      vertex 1.41421 1.41421 0
      vertex 1.41421 1.41421 11.3
      vertex 1.17557 1.61803 11.3
    endloop
  endfacet
  facet normal -0.649447 -0.760407 0
    outer loop
      vertex 1.17557 1.61803 0
      vertex 1.41421 1.41421 0
      vertex 1.17557 1.61803 11.3
    endloop
  endfacet
  facet normal -0.760407 -0.649447 0
    outer loop
      vertex 1.61803 1.17557 11.3
      vertex 1.41421 1.41421 11.3
      vertex 1.61803 1.17557 0
    endloop
  endfacet
  facet normal -0.760407 -0.649447 0
    outer loop
      vertex 1.61803 1.17557 0
      vertex 1.41421 1.41421 11.3
      vertex 1.41421 1.41421 0
    endloop
  endfacet
  facet normal -0.852641 -0.522498 0
    outer loop
      vertex 1.78201 0.907981 11.3
      vertex 1.61803 1.17557 11.3
      vertex 1.78201 0.907981 0
    endloop
  endfacet
  facet normal -0.852641 -0.522498 0
    outer loop
      vertex 1.78201 0.907981 0
      vertex 1.61803 1.17557 11.3
      vertex 1.61803 1.17557 0
    endloop
  endfacet
  facet normal -0.92388 -0.382683 0
    outer loop
      vertex 1.90211 0.618034 11.3
      vertex 1.78201 0.907981 11.3
      vertex 1.90211 0.618034 0
    endloop
  endfacet
  facet normal -0.92388 -0.382683 0
    outer loop
      vertex 1.90211 0.618034 0
      vertex 1.78201 0.907981 11.3
      vertex 1.78201 0.907981 0
    endloop
  endfacet
  facet normal -0.97237 -0.233446 0
    outer loop
      vertex 1.97538 0.312869 11.3
      vertex 1.90211 0.618034 11.3
      vertex 1.97538 0.312869 0
    endloop
  endfacet
  facet normal -0.97237 -0.233446 0
    outer loop
      vertex 1.97538 0.312869 0
      vertex 1.90211 0.618034 11.3
      vertex 1.90211 0.618034 0
    endloop
  endfacet
  facet normal -0.996917 -0.0784581 0
    outer loop
      vertex 2 0 11.3
      vertex 1.97538 0.312869 11.3
      vertex 2 0 0
    endloop
  endfacet
  facet normal -0.996917 -0.0784581 0
    outer loop
      vertex 2 0 0
      vertex 1.97538 0.312869 11.3
      vertex 1.97538 0.312869 0
    endloop
  endfacet
  facet normal -0.996917 0.0784581 0
    outer loop
      vertex 2 0 11.3
      vertex 2 0 0
      vertex 1.97538 -0.312869 11.3
    endloop
  endfacet
  facet normal -0.996917 0.0784581 0
    outer loop
      vertex 1.97538 -0.312869 11.3
      vertex 2 0 0
      vertex 1.97538 -0.312869 0
    endloop
  endfacet
  facet normal -0.97237 0.233446 0
    outer loop
      vertex 1.97538 -0.312869 11.3
      vertex 1.97538 -0.312869 0
      vertex 1.90211 -0.618034 11.3
    endloop
  endfacet
  facet normal -0.97237 0.233446 0
    outer loop
      vertex 1.90211 -0.618034 11.3
      vertex 1.97538 -0.312869 0
      vertex 1.90211 -0.618034 0
    endloop
  endfacet
  facet normal -0.92388 0.382683 0
    outer loop
      vertex 1.90211 -0.618034 11.3
      vertex 1.90211 -0.618034 0
      vertex 1.78201 -0.907981 11.3
    endloop
  endfacet
  facet normal -0.92388 0.382683 0
    outer loop
      vertex 1.78201 -0.907981 11.3
      vertex 1.90211 -0.618034 0
      vertex 1.78201 -0.907981 0
    endloop
  endfacet
  facet normal -0.852641 0.522498 0
    outer loop
      vertex 1.78201 -0.907981 11.3
      vertex 1.78201 -0.907981 0
      vertex 1.61803 -1.17557 11.3
    endloop
  endfacet
  facet normal -0.852641 0.522498 0
    outer loop
      vertex 1.61803 -1.17557 11.3
      vertex 1.78201 -0.907981 0
      vertex 1.61803 -1.17557 0
    endloop
  endfacet
  facet normal -0.760407 0.649447 0
    outer loop
      vertex 1.61803 -1.17557 11.3
      vertex 1.61803 -1.17557 0
      vertex 1.41421 -1.41421 11.3
    endloop
  endfacet
  facet normal -0.760407 0.649447 0
    outer loop
      vertex 1.41421 -1.41421 11.3
      vertex 1.61803 -1.17557 0
      vertex 1.41421 -1.41421 0
    endloop
  endfacet
  facet normal -0.649447 0.760407 0
    outer loop
      vertex 1.41421 -1.41421 11.3
      vertex 1.41421 -1.41421 0
      vertex 1.17557 -1.61803 11.3
    endloop
  endfacet
  facet normal -0.649447 0.760407 0
    outer loop
      vertex 1.17557 -1.61803 11.3
      vertex 1.41421 -1.41421 0
      vertex 1.17557 -1.61803 0
    endloop
  endfacet
  facet normal -0.522498 0.852641 0
    outer loop
      vertex 1.17557 -1.61803 11.3
      vertex 1.17557 -1.61803 0
      vertex 0.907981 -1.78201 11.3
    endloop
  endfacet
  facet normal -0.522498 0.852641 0
    outer loop
      vertex 0.907981 -1.78201 11.3
      vertex 1.17557 -1.61803 0
      vertex 0.907981 -1.78201 0
    endloop
  endfacet
  facet normal -0.382683 0.92388 0
    outer loop
      vertex 0.907981 -1.78201 11.3
      vertex 0.907981 -1.78201 0
      vertex 0.618034 -1.90211 11.3
    endloop
  endfacet
  facet normal -0.382683 0.92388 0
    outer loop
      vertex 0.618034 -1.90211 11.3
      vertex 0.907981 -1.78201 0
      vertex 0.618034 -1.90211 0
    endloop
  endfacet
  facet normal -0.233446 0.97237 0
    outer loop
      vertex 0.618034 -1.90211 11.3
      vertex 0.618034 -1.90211 0
      vertex 0.312869 -1.97538 11.3
    endloop
  endfacet
  facet normal -0.233446 0.97237 0
    outer loop
      vertex 0.312869 -1.97538 11.3
      vertex 0.618034 -1.90211 0
      vertex 0.312869 -1.97538 0
    endloop
  endfacet
  facet normal -0.0784581 0.996917 0
    outer loop
      vertex 0.312869 -1.97538 11.3
      vertex 0.312869 -1.97538 0
      vertex 0 -2 11.3
    endloop
  endfacet
  facet normal -0.0784581 0.996917 0
    outer loop
      vertex 0 -2 11.3
      vertex 0.312869 -1.97538 0
      vertex 0 -2 0
    endloop
  endfacet
  facet normal 0.0784581 0.996917 0
    outer loop
      vertex 0 -2 11.3
      vertex 0 -2 0
      vertex -0.312869 -1.97538 11.3
    endloop
  endfacet
  facet normal 0.0784581 0.996917 0
    outer loop
      vertex -0.312869 -1.97538 11.3
      vertex 0 -2 0
      vertex -0.312869 -1.97538 0
    endloop
  endfacet
  facet normal 0.233446 0.97237 0
    outer loop
      vertex -0.312869 -1.97538 11.3
      vertex -0.312869 -1.97538 0
      vertex -0.618034 -1.90211 11.3
    endloop
  endfacet
  facet normal 0.233446 0.97237 0
    outer loop
      vertex -0.618034 -1.90211 11.3
      vertex -0.312869 -1.97538 0
      vertex -0.618034 -1.90211 0
    endloop
  endfacet
  facet normal 0.382683 0.92388 0
    outer loop
      vertex -0.618034 -1.90211 11.3
      vertex -0.618034 -1.90211 0
      vertex -0.907981 -1.78201 11.3
    endloop
  endfacet
  facet normal 0.382683 0.92388 0
    outer loop
      vertex -0.907981 -1.78201 11.3
      vertex -0.618034 -1.90211 0
      vertex -0.907981 -1.78201 0
    endloop
  endfacet
  facet normal 0.522498 0.852641 0
    outer loop
      vertex -0.907981 -1.78201 11.3
      vertex -0.907981 -1.78201 0
      vertex -1.17557 -1.61803 11.3
    endloop
  endfacet
  facet normal 0.522498 0.852641 0
    outer loop
      vertex -1.17557 -1.61803 11.3
      vertex -0.907981 -1.78201 0
      vertex -1.17557 -1.61803 0
    endloop
  endfacet
  facet normal 0.649447 0.760407 0
    outer loop
      vertex -1.17557 -1.61803 11.3
      vertex -1.17557 -1.61803 0
      vertex -1.41421 -1.41421 11.3
    endloop
  endfacet
  facet normal 0.649447 0.760407 0
    outer loop
      vertex -1.41421 -1.41421 11.3
      vertex -1.17557 -1.61803 0
      vertex -1.41421 -1.41421 0
    endloop
  endfacet
  facet normal 0.760407 0.649447 0
    outer loop
      vertex -1.61803 -1.17557 11.3
      vertex -1.41421 -1.41421 11.3
      vertex -1.41421 -1.41421 0
    endloop
  endfacet
  facet normal 0.760407 0.649447 0
    outer loop
      vertex -1.61803 -1.17557 0
      vertex -1.61803 -1.17557 11.3
      vertex -1.41421 -1.41421 0
    endloop
  endfacet
  facet normal 0.852641 0.522498 0
    outer loop
      vertex -1.78201 -0.907981 11.3
      vertex -1.61803 -1.17557 11.3
      vertex -1.61803 -1.17557 0
    endloop
  endfacet
  facet normal 0.852641 0.522498 0
    outer loop
      vertex -1.78201 -0.907981 0
      vertex -1.78201 -0.907981 11.3
      vertex -1.61803 -1.17557 0
    endloop
  endfacet
  facet normal 0.92388 0.382683 0
    outer loop
      vertex -1.90211 -0.618034 11.3
      vertex -1.78201 -0.907981 11.3
      vertex -1.78201 -0.907981 0
    endloop
  endfacet
  facet normal 0.92388 0.382683 0
    outer loop
      vertex -1.90211 -0.618034 0
      vertex -1.90211 -0.618034 11.3
      vertex -1.78201 -0.907981 0
    endloop
  endfacet
  facet normal 0.97237 0.233446 0
    outer loop
      vertex -1.97538 -0.312869 11.3
      vertex -1.90211 -0.618034 11.3
      vertex -1.90211 -0.618034 0
    endloop
  endfacet
  facet normal 0.97237 0.233446 0
    outer loop
      vertex -1.97538 -0.312869 0
      vertex -1.97538 -0.312869 11.3
      vertex -1.90211 -0.618034 0
    endloop
  endfacet
  facet normal -0.979833 0.15519 0.125867
    outer loop
      vertex -8.5 1.57844 17
      vertex -8.32174 2.7039 17
      vertex -8.5 10.5 6
    endloop
  endfacet
  facet normal 0 0 1
    outer loop
      vertex -8.5 1.57844 17
      vertex -8.5 -1.57844 17
      vertex -8.32174 -2.7039 17
    endloop
  endfacet
  facet normal 0 0 1
    outer loop
      vertex -5.14312 -7.0789 17
      vertex -8.5 1.57844 17
      vertex -7.0789 -5.14312 17
    endloop
  endfacet
  facet normal 0 0 1
    outer loop
      vertex -7.0789 -5.14312 17
      vertex -8.5 1.57844 17
      vertex -8.32174 -2.7039 17
    endloop
  endfacet
  facet normal 0 0 1
    outer loop
      vertex -2.7039 -8.32174 17
      vertex -8.5 1.57844 17
      vertex -5.14312 -7.0789 17
    endloop
  endfacet
  facet normal 0 0 1
    outer loop
      vertex -1.94289e-15 -8.75 17
      vertex -8.5 1.57844 17
      vertex -2.7039 -8.32174 17
    endloop
  endfacet
  facet normal 0 0 1
    outer loop
      vertex -3.5671 -3.21183 17
      vertex -8.5 1.57844 17
      vertex -1.94289e-15 -8.75 17
    endloop
  endfacet
  facet normal 0 0 1
    outer loop
      vertex -3.5671 -3.21183 17
      vertex -4.15692 -2.4 17
      vertex -8.5 1.57844 17
    endloop
  endfacet
  facet normal 0 0 1
    outer loop
      vertex 1.95234 -4.38502 17
      vertex 0.997976 -4.69511 17
      vertex 5.14312 -7.0789 17
    endloop
  endfacet
  facet normal 0 0 1
    outer loop
      vertex 4.7737 -0.501737 17
      vertex 4.56507 -1.48328 17
      vertex 8.5 -1.57844 17
    endloop
  endfacet
  facet normal 0 0 1
    outer loop
      vertex -3.56709 3.21183 17
      vertex -2.82137 3.88328 17
      vertex -8.5 1.57844 17
    endloop
  endfacet
  facet normal 0 0 1
    outer loop
      vertex 3.5671 3.21183 17
      vertex 4.15692 2.4 17
      vertex 8.32174 2.7039 17
    endloop
  endfacet
  facet normal 0 0 1
    outer loop
      vertex 1.94289e-15 8.75 17
      vertex -8.5 1.57844 17
      vertex 2.7039 8.32174 17
    endloop
  endfacet
  facet normal 0 0 1
    outer loop
      vertex -2.7039 8.32174 17
      vertex -8.5 1.57844 17
      vertex 1.94289e-15 8.75 17
    endloop
  endfacet
  facet normal 0 0 1
    outer loop
      vertex -5.14312 7.0789 17
      vertex -8.5 1.57844 17
      vertex -2.7039 8.32174 17
    endloop
  endfacet
  facet normal 0 0 1
    outer loop
      vertex -7.0789 5.14312 17
      vertex -8.5 1.57844 17
      vertex -5.14312 7.0789 17
    endloop
  endfacet
  facet normal 0 0 1
    outer loop
      vertex -8.32174 2.7039 17
      vertex -8.5 1.57844 17
      vertex -7.0789 5.14312 17
    endloop
  endfacet
  facet normal 0 0 1
    outer loop
      vertex -0.997976 -4.69511 17
      vertex -1.95234 -4.38502 17
      vertex 2.7039 -8.32174 17
    endloop
  endfacet
  facet normal 0 0 1
    outer loop
      vertex -4.15692 -2.4 17
      vertex -4.56507 -1.48328 17
      vertex -8.5 1.57844 17
    endloop
  endfacet
  facet normal 0 0 1
    outer loop
      vertex -4.56507 1.48328 17
      vertex -4.15692 2.4 17
      vertex -8.5 1.57844 17
    endloop
  endfacet
  facet normal 0 0 1
    outer loop
      vertex 4.56507 -1.48328 17
      vertex 4.15692 -2.4 17
      vertex 8.32174 -2.7039 17
    endloop
  endfacet
  facet normal 0 0 1
    outer loop
      vertex 4.15692 2.4 17
      vertex 4.56507 1.48328 17
      vertex 8.5 1.57844 17
    endloop
  endfacet
  facet normal 0 0 1
    outer loop
      vertex 1.95234 4.38502 17
      vertex 2.82137 3.88328 17
      vertex 7.0789 5.14312 17
    endloop
  endfacet
  facet normal 0 0 1
    outer loop
      vertex 1.06581e-15 4.8 17
      vertex 0.997976 4.69511 17
      vertex 5.14312 7.0789 17
    endloop
  endfacet
  facet normal 0 0 1
    outer loop
      vertex 2.7039 8.32174 17
      vertex -8.5 1.57844 17
      vertex -2.82137 3.88328 17
    endloop
  endfacet
  facet normal 0 0 1
    outer loop
      vertex 2.7039 8.32174 17
      vertex -1.95234 4.38502 17
      vertex 5.14312 7.0789 17
    endloop
  endfacet
  facet normal 0 0 1
    outer loop
      vertex 2.7039 8.32174 17
      vertex -2.82137 3.88328 17
      vertex -1.95234 4.38502 17
    endloop
  endfacet
  facet normal 0 0 1
    outer loop
      vertex -1.95234 4.38502 17
      vertex -0.997976 4.69511 17
      vertex 5.14312 7.0789 17
    endloop
  endfacet
  facet normal 0 0 1
    outer loop
      vertex -0.997976 4.69511 17
      vertex 1.06581e-15 4.8 17
      vertex 5.14312 7.0789 17
    endloop
  endfacet
  facet normal 0 0 1
    outer loop
      vertex 5.14312 7.0789 17
      vertex 0.997976 4.69511 17
      vertex 7.0789 5.14312 17
    endloop
  endfacet
  facet normal 0 0 1
    outer loop
      vertex 0.997976 4.69511 17
      vertex 1.95234 4.38502 17
      vertex 7.0789 5.14312 17
    endloop
  endfacet
  facet normal 0 0 1
    outer loop
      vertex 7.0789 5.14312 17
      vertex 2.82137 3.88328 17
      vertex 8.32174 2.7039 17
    endloop
  endfacet
  facet normal 0 0 1
    outer loop
      vertex 2.82137 3.88328 17
      vertex 3.5671 3.21183 17
      vertex 8.32174 2.7039 17
    endloop
  endfacet
  facet normal 0 0 1
    outer loop
      vertex 8.32174 2.7039 17
      vertex 4.15692 2.4 17
      vertex 8.5 1.57844 17
    endloop
  endfacet
  facet normal 0 0 1
    outer loop
      vertex -4.15692 2.4 17
      vertex -3.56709 3.21183 17
      vertex -8.5 1.57844 17
    endloop
  endfacet
  facet normal 0 0 1
    outer loop
      vertex 8.5 1.57844 17
      vertex 4.56507 1.48328 17
      vertex 8.5 -1.57844 17
    endloop
  endfacet
  facet normal 0 0 1
    outer loop
      vertex 4.56507 1.48328 17
      vertex 4.7737 0.501737 17
      vertex 8.5 -1.57844 17
    endloop
  endfacet
  facet normal 0 0 1
    outer loop
      vertex 4.7737 0.501737 17
      vertex 4.7737 -0.501737 17
      vertex 8.5 -1.57844 17
    endloop
  endfacet
  facet normal 0 0 1
    outer loop
      vertex 8.5 -1.57844 17
      vertex 4.56507 -1.48328 17
      vertex 8.32174 -2.7039 17
    endloop
  endfacet
  facet normal 0 0 1
    outer loop
      vertex 3.56709 -3.21183 17
      vertex 2.82137 -3.88328 17
      vertex 7.0789 -5.14312 17
    endloop
  endfacet
  facet normal 0 0 1
    outer loop
      vertex 8.32174 -2.7039 17
      vertex 4.15692 -2.4 17
      vertex 7.0789 -5.14312 17
    endloop
  endfacet
  facet normal 0 0 1
    outer loop
      vertex 4.15692 -2.4 17
      vertex 3.56709 -3.21183 17
      vertex 7.0789 -5.14312 17
    endloop
  endfacet
  facet normal 0 0 1
    outer loop
      vertex 7.0789 -5.14312 17
      vertex 2.82137 -3.88328 17
      vertex 5.14312 -7.0789 17
    endloop
  endfacet
  facet normal 0 0 1
    outer loop
      vertex 2.82137 -3.88328 17
      vertex 1.95234 -4.38502 17
      vertex 5.14312 -7.0789 17
    endloop
  endfacet
  facet normal 0 0 1
    outer loop
      vertex 5.14312 -7.0789 17
      vertex 0.997976 -4.69511 17
      vertex 2.7039 -8.32174 17
    endloop
  endfacet
  facet normal 0 0 1
    outer loop
      vertex -4.7737 -0.501737 17
      vertex -4.7737 0.501737 17
      vertex -8.5 1.57844 17
    endloop
  endfacet
  facet normal 0 0 1
    outer loop
      vertex 0.997976 -4.69511 17
      vertex -1.06581e-15 -4.8 17
      vertex 2.7039 -8.32174 17
    endloop
  endfacet
  facet normal 0 0 1
    outer loop
      vertex -1.06581e-15 -4.8 17
      vertex -0.997976 -4.69511 17
      vertex 2.7039 -8.32174 17
    endloop
  endfacet
  facet normal 0 0 1
    outer loop
      vertex 2.7039 -8.32174 17
      vertex -1.95234 -4.38502 17
      vertex -1.94289e-15 -8.75 17
    endloop
  endfacet
  facet normal 0 0 1
    outer loop
      vertex -1.95234 -4.38502 17
      vertex -2.82137 -3.88328 17
      vertex -1.94289e-15 -8.75 17
    endloop
  endfacet
  facet normal 0 0 1
    outer loop
      vertex -2.82137 -3.88328 17
      vertex -3.5671 -3.21183 17
      vertex -1.94289e-15 -8.75 17
    endloop
  endfacet
  facet normal 0 0 1
    outer loop
      vertex -4.7737 0.501737 17
      vertex -4.56507 1.48328 17
      vertex -8.5 1.57844 17
    endloop
  endfacet
  facet normal 0 0 1
    outer loop
      vertex -4.56507 -1.48328 17
      vertex -4.7737 -0.501737 17
      vertex -8.5 1.57844 17
    endloop
  endfacet
  facet normal -0.979833 -0.15519 0.125867
    outer loop
      vertex -8.5 -1.57844 17
      vertex -8.5 -10.5 6
      vertex -8.32174 -2.7039 17
    endloop
  endfacet
  facet normal -0.844554 -0.430322 0.318671
    outer loop
      vertex -8.5 -10.5 6
      vertex -7.0789 -5.14312 17
      vertex -8.32174 -2.7039 17
    endloop
  endfacet
  facet normal -0.648248 -0.648248 0.399437
    outer loop
      vertex -8.5 -10.5 6
      vertex -5.14312 -7.0789 17
      vertex -7.0789 -5.14312 17
    endloop
  endfacet
  facet normal -0.419219 -0.822762 0.38382
    outer loop
      vertex -5.14312 -7.0789 17
      vertex -8.5 -10.5 6
      vertex -2.7039 -8.32174 17
    endloop
  endfacet
  facet normal -0.150718 -0.951598 0.267854
    outer loop
      vertex -2.7039 -8.32174 17
      vertex -8.5 -10.5 6
      vertex -1.94289e-15 -8.75 17
    endloop
  endfacet
  facet normal 2.79792e-16 0.951057 -0.309017
    outer loop
      vertex 8.5 -8.95623 4.05801
      vertex 8.5 -9.3 3
      vertex -8.5 -8.95623 4.05801
    endloop
  endfacet
  facet normal 2.79792e-16 0.951057 -0.309017
    outer loop
      vertex -8.5 -8.95623 4.05801
      vertex 8.5 -9.3 3
      vertex -8.5 -9.3 3
    endloop
  endfacet
  facet normal 1.42561e-16 0.951057 0.309017
    outer loop
      vertex 8.5 -8.95623 1.94199
      vertex -8.5 -8.95623 1.94199
      vertex 8.5 -9.3 3
    endloop
  endfacet
  facet normal 1.42561e-16 0.951057 0.309017
    outer loop
      vertex 8.5 -9.3 3
      vertex -8.5 -8.95623 1.94199
      vertex -8.5 -9.3 3
    endloop
  endfacet
  facet normal 3.10152e-16 0.587786 -0.809017
    outer loop
      vertex 8.5 -8.05623 4.7119
      vertex 8.5 -8.95623 4.05801
      vertex -8.5 -8.05623 4.7119
    endloop
  endfacet
  facet normal 3.10152e-16 0.587786 -0.809017
    outer loop
      vertex -8.5 -8.05623 4.7119
      vertex 8.5 -8.95623 4.05801
      vertex -8.5 -8.95623 4.05801
    endloop
  endfacet
  facet normal 2.22045e-16 -4.93038e-32 -1
    outer loop
      vertex 8.5 -6.94377 4.7119
      vertex 8.5 -8.05623 4.7119
      vertex -8.5 -6.94377 4.7119
    endloop
  endfacet
  facet normal 2.22045e-16 -4.93038e-32 -1
    outer loop
      vertex -8.5 -6.94377 4.7119
      vertex 8.5 -8.05623 4.7119
      vertex -8.5 -8.05623 4.7119
    endloop
  endfacet
  facet normal 4.91232e-17 -0.587786 -0.809017
    outer loop
      vertex 8.5 -6.04377 4.05801
      vertex 8.5 -6.94377 4.7119
      vertex -8.5 -6.04377 4.05801
    endloop
  endfacet
  facet normal 4.91232e-17 -0.587786 -0.809017
    outer loop
      vertex -8.5 -6.04377 4.05801
      vertex 8.5 -6.94377 4.7119
      vertex -8.5 -6.94377 4.7119
    endloop
  endfacet
  facet normal -1.42561e-16 -0.951057 -0.309017
    outer loop
      vertex -8.5 -5.7 3
      vertex 8.5 -5.7 3
      vertex 8.5 -6.04377 4.05801
    endloop
  endfacet
  facet normal -1.42561e-16 -0.951057 -0.309017
    outer loop
      vertex -8.5 -6.04377 4.05801
      vertex -8.5 -5.7 3
      vertex 8.5 -6.04377 4.05801
    endloop
  endfacet
  facet normal -2.79792e-16 -0.951057 0.309017
    outer loop
      vertex 8.5 -6.04377 1.94199
      vertex 8.5 -5.7 3
      vertex -8.5 -5.7 3
    endloop
  endfacet
  facet normal -2.79792e-16 -0.951057 0.309017
    outer loop
      vertex -8.5 -6.04377 1.94199
      vertex 8.5 -6.04377 1.94199
      vertex -8.5 -5.7 3
    endloop
  endfacet
  facet normal -3.10152e-16 -0.587786 0.809017
    outer loop
      vertex 8.5 -6.94377 1.2881
      vertex 8.5 -6.04377 1.94199
      vertex -8.5 -6.04377 1.94199
    endloop
  endfacet
  facet normal -3.10152e-16 -0.587786 0.809017
    outer loop
      vertex -8.5 -6.94377 1.2881
      vertex 8.5 -6.94377 1.2881
      vertex -8.5 -6.04377 1.94199
    endloop
  endfacet
  facet normal -2.22045e-16 4.93038e-32 1
    outer loop
      vertex 8.5 -8.05623 1.2881
      vertex 8.5 -6.94377 1.2881
      vertex -8.5 -6.94377 1.2881
    endloop
  endfacet
  facet normal -2.22045e-16 4.93038e-32 1
    outer loop
      vertex -8.5 -8.05623 1.2881
      vertex 8.5 -8.05623 1.2881
      vertex -8.5 -6.94377 1.2881
    endloop
  endfacet
  facet normal -4.91232e-17 0.587786 0.809017
    outer loop
      vertex 8.5 -8.95623 1.94199
      vertex 8.5 -8.05623 1.2881
      vertex -8.5 -8.05623 1.2881
    endloop
  endfacet
  facet normal -4.91232e-17 0.587786 0.809017
    outer loop
      vertex -8.5 -8.95623 1.94199
      vertex 8.5 -8.95623 1.94199
      vertex -8.5 -8.05623 1.2881
    endloop
  endfacet
  facet normal 2.79792e-16 0.951057 -0.309017
    outer loop
      vertex 8.5 6.04377 4.05801
      vertex 8.5 5.7 3
      vertex -8.5 6.04377 4.05801
    endloop
  endfacet
  facet normal 2.79792e-16 0.951057 -0.309017
    outer loop
      vertex -8.5 6.04377 4.05801
      vertex 8.5 5.7 3
      vertex -8.5 5.7 3
    endloop
  endfacet
  facet normal 1.42561e-16 0.951057 0.309017
    outer loop
      vertex 8.5 6.04377 1.94199
      vertex -8.5 6.04377 1.94199
      vertex 8.5 5.7 3
    endloop
  endfacet
  facet normal 1.42561e-16 0.951057 0.309017
    outer loop
      vertex 8.5 5.7 3
      vertex -8.5 6.04377 1.94199
      vertex -8.5 5.7 3
    endloop
  endfacet
  facet normal 3.10152e-16 0.587786 -0.809017
    outer loop
      vertex 8.5 6.94377 4.7119
      vertex 8.5 6.04377 4.05801
      vertex -8.5 6.94377 4.7119
    endloop
  endfacet
  facet normal 3.10152e-16 0.587786 -0.809017
    outer loop
      vertex -8.5 6.94377 4.7119
      vertex 8.5 6.04377 4.05801
      vertex -8.5 6.04377 4.05801
    endloop
  endfacet
  facet normal 2.22045e-16 -4.93038e-32 -1
    outer loop
      vertex 8.5 8.05623 4.7119
      vertex 8.5 6.94377 4.7119
      vertex -8.5 8.05623 4.7119
    endloop
  endfacet
  facet normal 2.22045e-16 -4.93038e-32 -1
    outer loop
      vertex -8.5 8.05623 4.7119
      vertex 8.5 6.94377 4.7119
      vertex -8.5 6.94377 4.7119
    endloop
  endfacet
  facet normal 4.91232e-17 -0.587786 -0.809017
    outer loop
      vertex 8.5 8.95623 4.05801
      vertex 8.5 8.05623 4.7119
      vertex -8.5 8.95623 4.05801
    endloop
  endfacet
  facet normal 4.91232e-17 -0.587786 -0.809017
    outer loop
      vertex -8.5 8.95623 4.05801
      vertex 8.5 8.05623 4.7119
      vertex -8.5 8.05623 4.7119
    endloop
  endfacet
  facet normal -1.42561e-16 -0.951057 -0.309017
    outer loop
      vertex -8.5 9.3 3
      vertex 8.5 9.3 3
      vertex 8.5 8.95623 4.05801
    endloop
  endfacet
  facet normal -1.42561e-16 -0.951057 -0.309017
    outer loop
      vertex -8.5 8.95623 4.05801
      vertex -8.5 9.3 3
      vertex 8.5 8.95623 4.05801
    endloop
  endfacet
  facet normal -2.79792e-16 -0.951057 0.309017
    outer loop
      vertex 8.5 8.95623 1.94199
      vertex 8.5 9.3 3
      vertex -8.5 9.3 3
    endloop
  endfacet
  facet normal -2.79792e-16 -0.951057 0.309017
    outer loop
      vertex -8.5 8.95623 1.94199
      vertex 8.5 8.95623 1.94199
      vertex -8.5 9.3 3
    endloop
  endfacet
  facet normal -3.10152e-16 -0.587786 0.809017
    outer loop
      vertex 8.5 8.05623 1.2881
      vertex 8.5 8.95623 1.94199
      vertex -8.5 8.95623 1.94199
    endloop
  endfacet
  facet normal -3.10152e-16 -0.587786 0.809017
    outer loop
      vertex -8.5 8.05623 1.2881
      vertex 8.5 8.05623 1.2881
      vertex -8.5 8.95623 1.94199
    endloop
  endfacet
  facet normal -2.22045e-16 4.93038e-32 1
    outer loop
      vertex 8.5 6.94377 1.2881
      vertex 8.5 8.05623 1.2881
      vertex -8.5 8.05623 1.2881
    endloop
  endfacet
  facet normal -2.22045e-16 4.93038e-32 1
    outer loop
      vertex -8.5 6.94377 1.2881
      vertex 8.5 6.94377 1.2881
      vertex -8.5 8.05623 1.2881
    endloop
  endfacet
  facet normal -4.91232e-17 0.587786 0.809017
    outer loop
      vertex 8.5 6.04377 1.94199
      vertex 8.5 6.94377 1.2881
      vertex -8.5 6.94377 1.2881
    endloop
  endfacet
  facet normal -4.91232e-17 0.587786 0.809017
    outer loop
      vertex -8.5 6.04377 1.94199
      vertex 8.5 6.04377 1.94199
      vertex -8.5 6.94377 1.2881
    endloop
  endfacet
  facet normal 0.979833 0.15519 0.125867
    outer loop
      vertex 8.5 10.5 6
      vertex 8.32174 2.7039 17
      vertex 8.5 1.57844 17
    endloop
  endfacet
  facet normal 0.844554 0.430322 0.318671
    outer loop
      vertex 8.5 10.5 6
      vertex 7.0789 5.14312 17
      vertex 8.32174 2.7039 17
    endloop
  endfacet
  facet normal 0.648248 0.648248 0.399437
    outer loop
      vertex 8.5 10.5 6
      vertex 5.14312 7.0789 17
      vertex 7.0789 5.14312 17
    endloop
  endfacet
  facet normal 0.419219 0.822762 0.38382
    outer loop
      vertex 2.7039 8.32174 17
      vertex 5.14312 7.0789 17
      vertex 8.5 10.5 6
    endloop
  endfacet
  facet normal 0.150718 0.951598 0.267854
    outer loop
      vertex 1.94289e-15 8.75 17
      vertex 2.7039 8.32174 17
      vertex 8.5 10.5 6
    endloop
  endfacet
  facet normal 2.19287e-16 0.98758 0.157115
    outer loop
      vertex -8.5 10.5 6
      vertex 1.94289e-15 8.75 17
      vertex 8.5 10.5 6
    endloop
  endfacet
  facet normal -0.150718 0.951598 0.267854
    outer loop
      vertex 1.94289e-15 8.75 17
      vertex -8.5 10.5 6
      vertex -2.7039 8.32174 17
    endloop
  endfacet
  facet normal -0.419219 0.822762 0.38382
    outer loop
      vertex -2.7039 8.32174 17
      vertex -8.5 10.5 6
      vertex -5.14312 7.0789 17
    endloop
  endfacet
  facet normal -0.648248 0.648248 0.399437
    outer loop
      vertex -5.14312 7.0789 17
      vertex -8.5 10.5 6
      vertex -7.0789 5.14312 17
    endloop
  endfacet
  facet normal -0.844554 0.430322 0.318671
    outer loop
      vertex -7.0789 5.14312 17
      vertex -8.5 10.5 6
      vertex -8.32174 2.7039 17
    endloop
  endfacet
  facet normal 0 0 1
    outer loop
      vertex -4.56507 -1.48328 11.3
      vertex -4.15692 -2.4 11.3
      vertex -3.5671 -3.21183 11.3
    endloop
  endfacet
  facet normal 0 0 1
    outer loop
      vertex -1.95234 -4.38502 11.3
      vertex -4.56507 -1.48328 11.3
      vertex -2.82137 -3.88328 11.3
    endloop
  endfacet
  facet normal 0 0 1
    outer loop
      vertex -2.82137 -3.88328 11.3
      vertex -4.56507 -1.48328 11.3
      vertex -3.5671 -3.21183 11.3
    endloop
  endfacet
  facet normal 0 0 1
    outer loop
      vertex -0.997976 -4.69511 11.3
      vertex -4.56507 -1.48328 11.3
      vertex -1.95234 -4.38502 11.3
    endloop
  endfacet
  facet normal 0 0 1
    outer loop
      vertex -1.06581e-15 -4.8 11.3
      vertex -4.56507 -1.48328 11.3
      vertex -0.997976 -4.69511 11.3
    endloop
  endfacet
  facet normal 0 0 1
    outer loop
      vertex 0.997976 -4.69511 11.3
      vertex -4.56507 -1.48328 11.3
      vertex -1.06581e-15 -4.8 11.3
    endloop
  endfacet
  facet normal 0 0 1
    outer loop
      vertex 1.95234 -4.38502 11.3
      vertex -4.56507 -1.48328 11.3
      vertex 0.997976 -4.69511 11.3
    endloop
  endfacet
  facet normal 0 0 1
    outer loop
      vertex 2.82137 -3.88328 11.3
      vertex -4.56507 -1.48328 11.3
      vertex 1.95234 -4.38502 11.3
    endloop
  endfacet
  facet normal 0 0 1
    outer loop
      vertex 3.56709 -3.21183 11.3
      vertex -4.56507 -1.48328 11.3
      vertex 2.82137 -3.88328 11.3
    endloop
  endfacet
  facet normal 0 0 1
    outer loop
      vertex -0.312869 -1.97538 11.3
      vertex -4.56507 -1.48328 11.3
      vertex 3.56709 -3.21183 11.3
    endloop
  endfacet
  facet normal 0 0 1
    outer loop
      vertex -0.907981 -1.78201 11.3
      vertex -1.17557 -1.61803 11.3
      vertex -4.56507 -1.48328 11.3
    endloop
  endfacet
  facet normal 0 0 1
    outer loop
      vertex 0.312869 -1.97538 11.3
      vertex 0 -2 11.3
      vertex 4.15692 -2.4 11.3
    endloop
  endfacet
  facet normal 0 0 1
    outer loop
      vertex 1.90211 -0.618034 11.3
      vertex 1.78201 -0.907981 11.3
      vertex 4.7737 -0.501737 11.3
    endloop
  endfacet
  facet normal 0 0 1
    outer loop
      vertex 0.312869 1.97538 11.3
      vertex 0.618034 1.90211 11.3
      vertex 2.82137 3.88328 11.3
    endloop
  endfacet
  facet normal 0 0 1
    outer loop
      vertex 1.06581e-15 4.8 11.3
      vertex -4.56507 -1.48328 11.3
      vertex 0.997976 4.69511 11.3
    endloop
  endfacet
  facet normal 0 0 1
    outer loop
      vertex -0.997976 4.69511 11.3
      vertex -4.56507 -1.48328 11.3
      vertex 1.06581e-15 4.8 11.3
    endloop
  endfacet
  facet normal 0 0 1
    outer loop
      vertex -1.95234 4.38502 11.3
      vertex -4.56507 -1.48328 11.3
      vertex -0.997976 4.69511 11.3
    endloop
  endfacet
  facet normal 0 0 1
    outer loop
      vertex -2.82137 3.88328 11.3
      vertex -4.56507 -1.48328 11.3
      vertex -1.95234 4.38502 11.3
    endloop
  endfacet
  facet normal 0 0 1
    outer loop
      vertex -3.56709 3.21183 11.3
      vertex -4.56507 -1.48328 11.3
      vertex -2.82137 3.88328 11.3
    endloop
  endfacet
  facet normal 0 0 1
    outer loop
      vertex -4.15692 2.4 11.3
      vertex -4.56507 -1.48328 11.3
      vertex -3.56709 3.21183 11.3
    endloop
  endfacet
  facet normal 0 0 1
    outer loop
      vertex -4.56507 1.48328 11.3
      vertex -4.56507 -1.48328 11.3
      vertex -4.15692 2.4 11.3
    endloop
  endfacet
  facet normal 0 0 1
    outer loop
      vertex -4.7737 0.501737 11.3
      vertex -4.56507 -1.48328 11.3
      vertex -4.56507 1.48328 11.3
    endloop
  endfacet
  facet normal 0 0 1
    outer loop
      vertex -4.7737 -0.501737 11.3
      vertex -4.56507 -1.48328 11.3
      vertex -4.7737 0.501737 11.3
    endloop
  endfacet
  facet normal 0 0 1
    outer loop
      vertex -1.97538 0.312869 11.3
      vertex -4.56507 -1.48328 11.3
      vertex -2 0 11.3
    endloop
  endfacet
  facet normal 0 0 1
    outer loop
      vertex 1.41421 1.41421 11.3
      vertex 1.61803 1.17557 11.3
      vertex 4.15692 2.4 11.3
    endloop
  endfacet
  facet normal 0 0 1
    outer loop
      vertex -1.78201 0.907981 11.3
      vertex -4.56507 -1.48328 11.3
      vertex -1.90211 0.618034 11.3
    endloop
  endfacet
  facet normal 0 0 1
    outer loop
      vertex 0 2 11.3
      vertex 0.312869 1.97538 11.3
      vertex 2.82137 3.88328 11.3
    endloop
  endfacet
  facet normal 0 0 1
    outer loop
      vertex -0.907981 1.78201 11.3
      vertex -0.618034 1.90211 11.3
      vertex 1.95234 4.38502 11.3
    endloop
  endfacet
  facet normal 0 0 1
    outer loop
      vertex 0.997976 4.69511 11.3
      vertex -4.56507 -1.48328 11.3
      vertex -1.61803 1.17557 11.3
    endloop
  endfacet
  facet normal 0 0 1
    outer loop
      vertex 0.997976 4.69511 11.3
      vertex -1.41421 1.41421 11.3
      vertex 1.95234 4.38502 11.3
    endloop
  endfacet
  facet normal 0 0 1
    outer loop
      vertex 0.997976 4.69511 11.3
      vertex -1.61803 1.17557 11.3
      vertex -1.41421 1.41421 11.3
    endloop
  endfacet
  facet normal 0 0 1
    outer loop
      vertex -1.41421 1.41421 11.3
      vertex -1.17557 1.61803 11.3
      vertex 1.95234 4.38502 11.3
    endloop
  endfacet
  facet normal 0 0 1
    outer loop
      vertex -0.618034 1.90211 11.3
      vertex -0.312869 1.97538 11.3
      vertex 1.95234 4.38502 11.3
    endloop
  endfacet
  facet normal 0 0 1
    outer loop
      vertex -1.17557 1.61803 11.3
      vertex -0.907981 1.78201 11.3
      vertex 1.95234 4.38502 11.3
    endloop
  endfacet
  facet normal 0 0 1
    outer loop
      vertex 1.95234 4.38502 11.3
      vertex -0.312869 1.97538 11.3
      vertex 2.82137 3.88328 11.3
    endloop
  endfacet
  facet normal 0 0 1
    outer loop
      vertex -0.312869 1.97538 11.3
      vertex 0 2 11.3
      vertex 2.82137 3.88328 11.3
    endloop
  endfacet
  facet normal 0 0 1
    outer loop
      vertex 0.907981 1.78201 11.3
      vertex 1.17557 1.61803 11.3
      vertex 3.5671 3.21183 11.3
    endloop
  endfacet
  facet normal 0 0 1
    outer loop
      vertex 2.82137 3.88328 11.3
      vertex 0.618034 1.90211 11.3
      vertex 3.5671 3.21183 11.3
    endloop
  endfacet
  facet normal 0 0 1
    outer loop
      vertex 0.618034 1.90211 11.3
      vertex 0.907981 1.78201 11.3
      vertex 3.5671 3.21183 11.3
    endloop
  endfacet
  facet normal 0 0 1
    outer loop
      vertex 3.5671 3.21183 11.3
      vertex 1.17557 1.61803 11.3
      vertex 4.15692 2.4 11.3
    endloop
  endfacet
  facet normal 0 0 1
    outer loop
      vertex -1.97538 0.312869 11.3
      vertex -1.90211 0.618034 11.3
      vertex -4.56507 -1.48328 11.3
    endloop
  endfacet
  facet normal 0 0 1
    outer loop
      vertex 1.17557 1.61803 11.3
      vertex 1.41421 1.41421 11.3
      vertex 4.15692 2.4 11.3
    endloop
  endfacet
  facet normal 0 0 1
    outer loop
      vertex -1.78201 0.907981 11.3
      vertex -1.61803 1.17557 11.3
      vertex -4.56507 -1.48328 11.3
    endloop
  endfacet
  facet normal 0 0 1
    outer loop
      vertex 4.15692 2.4 11.3
      vertex 1.61803 1.17557 11.3
      vertex 4.56507 1.48328 11.3
    endloop
  endfacet
  facet normal 0 0 1
    outer loop
      vertex 1.61803 1.17557 11.3
      vertex 1.78201 0.907981 11.3
      vertex 4.56507 1.48328 11.3
    endloop
  endfacet
  facet normal 0 0 1
    outer loop
      vertex 4.56507 1.48328 11.3
      vertex 1.90211 0.618034 11.3
      vertex 4.7737 0.501737 11.3
    endloop
  endfacet
  facet normal 0 0 1
    outer loop
      vertex 1.90211 0.618034 11.3
      vertex 1.97538 0.312869 11.3
      vertex 4.7737 0.501737 11.3
    endloop
  endfacet
  facet normal 0 0 1
    outer loop
      vertex 1.97538 0.312869 11.3
      vertex 2 0 11.3
      vertex 4.7737 0.501737 11.3
    endloop
  endfacet
  facet normal 0 0 1
    outer loop
      vertex -1.90211 -0.618034 11.3
      vertex -1.97538 -0.312869 11.3
      vertex -4.56507 -1.48328 11.3
    endloop
  endfacet
  facet normal 0 0 1
    outer loop
      vertex 4.7737 0.501737 11.3
      vertex 1.97538 -0.312869 11.3
      vertex 4.7737 -0.501737 11.3
    endloop
  endfacet
  facet normal 0 0 1
    outer loop
      vertex 1.97538 -0.312869 11.3
      vertex 1.90211 -0.618034 11.3
      vertex 4.7737 -0.501737 11.3
    endloop
  endfacet
  facet normal 0 0 1
    outer loop
      vertex 4.7737 -0.501737 11.3
      vertex 1.78201 -0.907981 11.3
      vertex 4.56507 -1.48328 11.3
    endloop
  endfacet
  facet normal 0 0 1
    outer loop
      vertex 1.78201 -0.907981 11.3
      vertex 1.61803 -1.17557 11.3
      vertex 4.56507 -1.48328 11.3
    endloop
  endfacet
  facet normal 0 0 1
    outer loop
      vertex 1.61803 -1.17557 11.3
      vertex 1.41421 -1.41421 11.3
      vertex 4.56507 -1.48328 11.3
    endloop
  endfacet
  facet normal 0 0 1
    outer loop
      vertex 4.56507 -1.48328 11.3
      vertex 1.17557 -1.61803 11.3
      vertex 4.15692 -2.4 11.3
    endloop
  endfacet
  facet normal 0 0 1
    outer loop
      vertex 1.17557 -1.61803 11.3
      vertex 0.907981 -1.78201 11.3
      vertex 4.15692 -2.4 11.3
    endloop
  endfacet
  facet normal 0 0 1
    outer loop
      vertex 0.907981 -1.78201 11.3
      vertex 0.618034 -1.90211 11.3
      vertex 4.15692 -2.4 11.3
    endloop
  endfacet
  facet normal 0 0 1
    outer loop
      vertex 0.618034 -1.90211 11.3
      vertex 0.312869 -1.97538 11.3
      vertex 4.15692 -2.4 11.3
    endloop
  endfacet
  facet normal 0 0 1
    outer loop
      vertex 4.15692 -2.4 11.3
      vertex 0 -2 11.3
      vertex 3.56709 -3.21183 11.3
    endloop
  endfacet
  facet normal 0 0 1
    outer loop
      vertex 0 -2 11.3
      vertex -0.312869 -1.97538 11.3
      vertex 3.56709 -3.21183 11.3
    endloop
  endfacet
  facet normal 0 0 1
    outer loop
      vertex -0.618034 -1.90211 11.3
      vertex -0.907981 -1.78201 11.3
      vertex -4.56507 -1.48328 11.3
    endloop
  endfacet
  facet normal 0 0 1
    outer loop
      vertex -0.312869 -1.97538 11.3
      vertex -0.618034 -1.90211 11.3
      vertex -4.56507 -1.48328 11.3
    endloop
  endfacet
  facet normal 0 0 1
    outer loop
      vertex -1.17557 -1.61803 11.3
      vertex -1.41421 -1.41421 11.3
      vertex -4.56507 -1.48328 11.3
    endloop
  endfacet
  facet normal 0 0 1
    outer loop
      vertex -1.41421 -1.41421 11.3
      vertex -1.61803 -1.17557 11.3
      vertex -4.56507 -1.48328 11.3
    endloop
  endfacet
  facet normal 0 0 1
    outer loop
      vertex -1.61803 -1.17557 11.3
      vertex -1.78201 -0.907981 11.3
      vertex -4.56507 -1.48328 11.3
    endloop
  endfacet
  facet normal 0 0 1
    outer loop
      vertex 1.41421 -1.41421 11.3
      vertex 1.17557 -1.61803 11.3
      vertex 4.56507 -1.48328 11.3
    endloop
  endfacet
  facet normal 0 0 1
    outer loop
      vertex 2 0 11.3
      vertex 1.97538 -0.312869 11.3
      vertex 4.7737 0.501737 11.3
    endloop
  endfacet
  facet normal 0 0 1
    outer loop
      vertex 1.78201 0.907981 11.3
      vertex 1.90211 0.618034 11.3
      vertex 4.56507 1.48328 11.3
    endloop
  endfacet
  facet normal 0 0 1
    outer loop
      vertex -1.78201 -0.907981 11.3
      vertex -1.90211 -0.618034 11.3
      vertex -4.56507 -1.48328 11.3
    endloop
  endfacet
  facet normal 0 0 1
    outer loop
      vertex -1.97538 -0.312869 11.3
      vertex -2 0 11.3
      vertex -4.56507 -1.48328 11.3
    endloop
  endfacet
  facet normal 1 -2.22045e-16 0
    outer loop
      vertex -4.7737 0.501737 11.3
      vertex -4.7737 0.501737 17
      vertex -4.7737 -0.501737 17
    endloop
  endfacet
  facet normal 1 -2.22045e-16 0
    outer loop
      vertex -4.7737 -0.501737 11.3
      vertex -4.7737 0.501737 11.3
      vertex -4.7737 -0.501737 17
    endloop
  endfacet
  facet normal 0.978148 0.207912 0
    outer loop
      vertex -4.7737 -0.501737 17
      vertex -4.56507 -1.48328 17
      vertex -4.56507 -1.48328 11.3
    endloop
  endfacet
  facet normal 0.978148 0.207912 0
    outer loop
      vertex -4.7737 -0.501737 11.3
      vertex -4.7737 -0.501737 17
      vertex -4.56507 -1.48328 11.3
    endloop
  endfacet
  facet normal 0.913546 0.406737 0
    outer loop
      vertex -4.56507 -1.48328 17
      vertex -4.15692 -2.4 17
      vertex -4.15692 -2.4 11.3
    endloop
  endfacet
  facet normal 0.913546 0.406737 0
    outer loop
      vertex -4.56507 -1.48328 11.3
      vertex -4.56507 -1.48328 17
      vertex -4.15692 -2.4 11.3
    endloop
  endfacet
  facet normal 0.809017 0.587785 0
    outer loop
      vertex -4.15692 -2.4 17
      vertex -3.5671 -3.21183 17
      vertex -3.5671 -3.21183 11.3
    endloop
  endfacet
  facet normal 0.809017 0.587785 0
    outer loop
      vertex -4.15692 -2.4 11.3
      vertex -4.15692 -2.4 17
      vertex -3.5671 -3.21183 11.3
    endloop
  endfacet
  facet normal 0.669131 0.743145 0
    outer loop
      vertex -2.82137 -3.88328 17
      vertex -2.82137 -3.88328 11.3
      vertex -3.5671 -3.21183 17
    endloop
  endfacet
  facet normal 0.669131 0.743145 0
    outer loop
      vertex -3.5671 -3.21183 17
      vertex -2.82137 -3.88328 11.3
      vertex -3.5671 -3.21183 11.3
    endloop
  endfacet
  facet normal 0.5 0.866026 0
    outer loop
      vertex -1.95234 -4.38502 17
      vertex -1.95234 -4.38502 11.3
      vertex -2.82137 -3.88328 17
    endloop
  endfacet
  facet normal 0.5 0.866026 0
    outer loop
      vertex -2.82137 -3.88328 17
      vertex -1.95234 -4.38502 11.3
      vertex -2.82137 -3.88328 11.3
    endloop
  endfacet
  facet normal 0.309017 0.951057 0
    outer loop
      vertex -0.997976 -4.69511 17
      vertex -0.997976 -4.69511 11.3
      vertex -1.95234 -4.38502 17
    endloop
  endfacet
  facet normal 0.309017 0.951057 0
    outer loop
      vertex -1.95234 -4.38502 17
      vertex -0.997976 -4.69511 11.3
      vertex -1.95234 -4.38502 11.3
    endloop
  endfacet
  facet normal 0.104529 0.994522 0
    outer loop
      vertex -1.06581e-15 -4.8 17
      vertex -1.06581e-15 -4.8 11.3
      vertex -0.997976 -4.69511 17
    endloop
  endfacet
  facet normal 0.104529 0.994522 0
    outer loop
      vertex -0.997976 -4.69511 17
      vertex -1.06581e-15 -4.8 11.3
      vertex -0.997976 -4.69511 11.3
    endloop
  endfacet
  facet normal -0.104529 0.994522 0
    outer loop
      vertex 0.997976 -4.69511 17
      vertex 0.997976 -4.69511 11.3
      vertex -1.06581e-15 -4.8 17
    endloop
  endfacet
  facet normal -0.104529 0.994522 0
    outer loop
      vertex -1.06581e-15 -4.8 17
      vertex 0.997976 -4.69511 11.3
      vertex -1.06581e-15 -4.8 11.3
    endloop
  endfacet
  facet normal -0.309017 0.951057 0
    outer loop
      vertex 1.95234 -4.38502 17
      vertex 1.95234 -4.38502 11.3
      vertex 0.997976 -4.69511 17
    endloop
  endfacet
  facet normal -0.309017 0.951057 0
    outer loop
      vertex 0.997976 -4.69511 17
      vertex 1.95234 -4.38502 11.3
      vertex 0.997976 -4.69511 11.3
    endloop
  endfacet
  facet normal -0.5 0.866026 0
    outer loop
      vertex 2.82137 -3.88328 17
      vertex 2.82137 -3.88328 11.3
      vertex 1.95234 -4.38502 17
    endloop
  endfacet
  facet normal -0.5 0.866026 0
    outer loop
      vertex 1.95234 -4.38502 17
      vertex 2.82137 -3.88328 11.3
      vertex 1.95234 -4.38502 11.3
    endloop
  endfacet
  facet normal -0.669131 0.743145 0
    outer loop
      vertex 3.56709 -3.21183 17
      vertex 3.56709 -3.21183 11.3
      vertex 2.82137 -3.88328 17
    endloop
  endfacet
  facet normal -0.669131 0.743145 0
    outer loop
      vertex 2.82137 -3.88328 17
      vertex 3.56709 -3.21183 11.3
      vertex 2.82137 -3.88328 11.3
    endloop
  endfacet
  facet normal -0.809017 0.587785 0
    outer loop
      vertex 4.15692 -2.4 17
      vertex 4.15692 -2.4 11.3
      vertex 3.56709 -3.21183 17
    endloop
  endfacet
  facet normal -0.809017 0.587785 0
    outer loop
      vertex 3.56709 -3.21183 17
      vertex 4.15692 -2.4 11.3
      vertex 3.56709 -3.21183 11.3
    endloop
  endfacet
  facet normal -0.913546 0.406737 0
    outer loop
      vertex 4.56507 -1.48328 17
      vertex 4.56507 -1.48328 11.3
      vertex 4.15692 -2.4 17
    endloop
  endfacet
  facet normal -0.913546 0.406737 0
    outer loop
      vertex 4.15692 -2.4 17
      vertex 4.56507 -1.48328 11.3
      vertex 4.15692 -2.4 11.3
    endloop
  endfacet
  facet normal -0.978148 0.207912 0
    outer loop
      vertex 4.7737 -0.501737 17
      vertex 4.7737 -0.501737 11.3
      vertex 4.56507 -1.48328 17
    endloop
  endfacet
  facet normal -0.978148 0.207912 0
    outer loop
      vertex 4.56507 -1.48328 17
      vertex 4.7737 -0.501737 11.3
      vertex 4.56507 -1.48328 11.3
    endloop
  endfacet
  facet normal -1 2.22045e-16 0
    outer loop
      vertex 4.7737 0.501737 17
      vertex 4.7737 0.501737 11.3
      vertex 4.7737 -0.501737 17
    endloop
  endfacet
  facet normal -1 2.22045e-16 0
    outer loop
      vertex 4.7737 -0.501737 17
      vertex 4.7737 0.501737 11.3
      vertex 4.7737 -0.501737 11.3
    endloop
  endfacet
  facet normal -0.978148 -0.207912 0
    outer loop
      vertex 4.7737 0.501737 17
      vertex 4.56507 1.48328 17
      vertex 4.7737 0.501737 11.3
    endloop
  endfacet
  facet normal -0.978148 -0.207912 0
    outer loop
      vertex 4.7737 0.501737 11.3
      vertex 4.56507 1.48328 17
      vertex 4.56507 1.48328 11.3
    endloop
  endfacet
  facet normal -0.913546 -0.406737 0
    outer loop
      vertex 4.56507 1.48328 17
      vertex 4.15692 2.4 17
      vertex 4.56507 1.48328 11.3
    endloop
  endfacet
  facet normal -0.913546 -0.406737 0
    outer loop
      vertex 4.56507 1.48328 11.3
      vertex 4.15692 2.4 17
      vertex 4.15692 2.4 11.3
    endloop
  endfacet
  facet normal -0.809017 -0.587785 0
    outer loop
      vertex 4.15692 2.4 17
      vertex 3.5671 3.21183 17
      vertex 4.15692 2.4 11.3
    endloop
  endfacet
  facet normal -0.809017 -0.587785 0
    outer loop
      vertex 4.15692 2.4 11.3
      vertex 3.5671 3.21183 17
      vertex 3.5671 3.21183 11.3
    endloop
  endfacet
  facet normal -0.669131 -0.743145 0
    outer loop
      vertex 3.5671 3.21183 11.3
      vertex 3.5671 3.21183 17
      vertex 2.82137 3.88328 17
    endloop
  endfacet
  facet normal -0.669131 -0.743145 0
    outer loop
      vertex 2.82137 3.88328 11.3
      vertex 3.5671 3.21183 11.3
      vertex 2.82137 3.88328 17
    endloop
  endfacet
  facet normal -0.5 -0.866026 0
    outer loop
      vertex 2.82137 3.88328 11.3
      vertex 2.82137 3.88328 17
      vertex 1.95234 4.38502 17
    endloop
  endfacet
  facet normal -0.5 -0.866026 0
    outer loop
      vertex 1.95234 4.38502 11.3
      vertex 2.82137 3.88328 11.3
      vertex 1.95234 4.38502 17
    endloop
  endfacet
  facet normal -0.309017 -0.951057 0
    outer loop
      vertex 1.95234 4.38502 11.3
      vertex 1.95234 4.38502 17
      vertex 0.997976 4.69511 17
    endloop
  endfacet
  facet normal -0.309017 -0.951057 0
    outer loop
      vertex 0.997976 4.69511 11.3
      vertex 1.95234 4.38502 11.3
      vertex 0.997976 4.69511 17
    endloop
  endfacet
  facet normal -0.104529 -0.994522 0
    outer loop
      vertex 0.997976 4.69511 11.3
      vertex 0.997976 4.69511 17
      vertex 1.06581e-15 4.8 17
    endloop
  endfacet
  facet normal -0.104529 -0.994522 0
    outer loop
      vertex 1.06581e-15 4.8 11.3
      vertex 0.997976 4.69511 11.3
      vertex 1.06581e-15 4.8 17
    endloop
  endfacet
  facet normal 0.104529 -0.994522 0
    outer loop
      vertex 1.06581e-15 4.8 11.3
      vertex 1.06581e-15 4.8 17
      vertex -0.997976 4.69511 17
    endloop
  endfacet
  facet normal 0.104529 -0.994522 0
    outer loop
      vertex -0.997976 4.69511 11.3
      vertex 1.06581e-15 4.8 11.3
      vertex -0.997976 4.69511 17
    endloop
  endfacet
  facet normal 0.309017 -0.951057 0
    outer loop
      vertex -0.997976 4.69511 11.3
      vertex -0.997976 4.69511 17
      vertex -1.95234 4.38502 17
    endloop
  endfacet
  facet normal 0.309017 -0.951057 0
    outer loop
      vertex -1.95234 4.38502 11.3
      vertex -0.997976 4.69511 11.3
      vertex -1.95234 4.38502 17
    endloop
  endfacet
  facet normal 0.5 -0.866026 0
    outer loop
      vertex -1.95234 4.38502 11.3
      vertex -1.95234 4.38502 17
      vertex -2.82137 3.88328 17
    endloop
  endfacet
  facet normal 0.5 -0.866026 0
    outer loop
      vertex -2.82137 3.88328 11.3
      vertex -1.95234 4.38502 11.3
      vertex -2.82137 3.88328 17
    endloop
  endfacet
  facet normal 0.669131 -0.743145 0
    outer loop
      vertex -2.82137 3.88328 11.3
      vertex -2.82137 3.88328 17
      vertex -3.56709 3.21183 17
    endloop
  endfacet
  facet normal 0.669131 -0.743145 0
    outer loop
      vertex -3.56709 3.21183 11.3
      vertex -2.82137 3.88328 11.3
      vertex -3.56709 3.21183 17
    endloop
  endfacet
  facet normal 0.809017 -0.587785 0
    outer loop
      vertex -3.56709 3.21183 11.3
      vertex -3.56709 3.21183 17
      vertex -4.15692 2.4 17
    endloop
  endfacet
  facet normal 0.809017 -0.587785 0
    outer loop
      vertex -4.15692 2.4 11.3
      vertex -3.56709 3.21183 11.3
      vertex -4.15692 2.4 17
    endloop
  endfacet
  facet normal 0.913546 -0.406737 0
    outer loop
      vertex -4.15692 2.4 11.3
      vertex -4.15692 2.4 17
      vertex -4.56507 1.48328 17
    endloop
  endfacet
  facet normal 0.913546 -0.406737 0
    outer loop
      vertex -4.56507 1.48328 11.3
      vertex -4.15692 2.4 11.3
      vertex -4.56507 1.48328 17
    endloop
  endfacet
  facet normal 0.978148 -0.207912 0
    outer loop
      vertex -4.56507 1.48328 11.3
      vertex -4.56507 1.48328 17
      vertex -4.7737 0.501737 17
    endloop
  endfacet
  facet normal 0.978148 -0.207912 0
    outer loop
      vertex -4.7737 0.501737 11.3
      vertex -4.56507 1.48328 11.3
      vertex -4.7737 0.501737 17
    endloop
  endfacet
endsolid OpenSCAD_Model
